:SAMPLES-PER-SECOND 30
:FULLY-SPECIFIED
:DEGREES
420
root  4.41858 40.38 1.82434 -169.499 -80.7282 170.881
RightUpLeg  -9.2125 -9.63895 -12.3799
RightLeg  9.7805 16.6974 3.31402
RightFoot  -7.5164 -0.597811 16.2497
RightToes  -4.65663e-010 0 -3.6325e-017
Spine  3.60384 -0.397408 -3.46638
Spine1  13.9265 -1.0949 1.29253
HEad  36.5163 -4.00786 -3.43688
LeftShoulder1  7.05039 -9.79628 -46.2129
LeftArm  -13.6303 28.9233 -22.1167
LeftForeArm  75.6355 -75.8159 -35.314
LeftHand  -0.244104 0.0205437 5.32207
RightShoulder  6.44432 9.80225 42.1549
RightArm  -0.784929 -15.3944 27.3859
RightForeArm  -20.1846 27.5491 6.92796
RightHand  -1.50533 2.79261 -21.3642
LeftUpLeg  -6.79335 4.97681 -2.16608
LeftLeg  10.2709 22.6493 -2.39462
LeftFoot  -5.67388 -0.307779 6.90422
LeftToes  4.18335e-011 1.59304e-011 3.38507e-012
421
root  4.468 40.4563 1.60415 -170.945 -80.262 172.656
RightUpLeg  -8.61092 -10.4501 -11.6034
RightLeg  7.27657 15.8631 3.04938
RightFoot  -6.78396 -0.674439 15.6981
RightToes  -4.65663e-010 0 -3.6325e-017
Spine  3.39633 -0.410784 -4.15949
Spine1  13.8516 -1.00962 1.16178
HEad  36.4707 -2.52993 -3.02064
LeftShoulder1  7.0128 -9.76763 -46.0612
LeftArm  -13.968 28.4391 -21.5394
LeftForeArm  75.0156 -75.5624 -34.5394
LeftHand  -0.244104 0.0205437 5.32207
RightShoulder  6.48529 9.82851 42.3519
RightArm  -0.0945534 -16.1339 27.9735
RightForeArm  -19.2938 27.7594 6.9405
RightHand  -1.46517 2.73885 -20.9443
LeftUpLeg  -6.93266 4.97238 -1.65044
LeftLeg  9.81947 23.0159 -2.29408
LeftFoot  -5.27806 -0.313845 6.51861
LeftToes  4.18335e-011 1.59304e-011 3.38507e-012
422
root  4.51914 40.4949 1.41776 -171.05 -80.2392 173.021
RightUpLeg  -8.18968 -10.4034 -11.4032
RightLeg  5.74295 15.583 3.02332
RightFoot  -5.69293 -0.834769 16.0119
RightToes  -4.65663e-010 0 -3.6325e-017
Spine  3.35675 -0.572376 -4.41819
Spine1  13.7381 -0.942447 0.495324
HEad  36.3791 -1.40954 -2.77729
LeftShoulder1  6.99141 -9.72723 -46.0604
LeftArm  -14.5499 27.7566 -21.1651
LeftForeArm  74.3816 -75.3419 -33.9201
LeftHand  -0.244104 0.0205437 5.32207
RightShoulder  6.54177 9.87039 42.6029
RightArm  0.699531 -16.8932 28.2642
RightForeArm  -18.3933 27.75 6.89807
RightHand  -1.42814 2.68952 -20.551
LeftUpLeg  -7.26965 4.7977 -1.46423
LeftLeg  9.79314 23.1378 -1.96902
LeftFoot  -4.9937 -0.327292 6.43914
LeftToes  4.18335e-011 1.59304e-011 3.38507e-012
423
root  4.55442 40.5031 1.28018 -171.665 -80.2928 173.673
RightUpLeg  -7.64918 -10.6298 -11.4625
RightLeg  4.58974 16.3764 3.27669
RightFoot  -4.79966 -1.04107 17.5134
RightToes  -4.65663e-010 0 -3.6325e-017
Spine  3.52321 -0.686673 -4.19185
Spine1  13.7239 -0.777452 -0.431424
HEad  36.2362 -0.534894 -2.96975
LeftShoulder1  7.012 -9.72333 -46.2138
LeftArm  -15.3198 27.0559 -21.2457
LeftForeArm  74.0371 -75.1834 -33.4662
LeftHand  -0.244104 0.0205437 5.32207
RightShoulder  6.55501 9.89452 42.6128
RightArm  1.69815 -17.5076 28.3281
RightForeArm  -17.8491 27.4056 6.78915
RightHand  -1.3906 2.58607 -20.2757
LeftUpLeg  -7.54035 4.74456 -1.29492
LeftLeg  10.1858 23.1616 -1.5022
LeftFoot  -4.95148 -0.33212 6.4676
LeftToes  4.18335e-011 1.59304e-011 3.38507e-012
424
root  4.56555 40.5084 1.16864 -173.033 -80.3963 174.966
RightUpLeg  -6.83981 -10.9969 -11.5781
RightLeg  3.28169 16.5467 3.66355
RightFoot  -4.24127 -1.22172 19.0648
RightToes  -4.65663e-010 0 -3.6325e-017
Spine  3.63388 -0.668346 -4.01914
Spine1  13.8824 -0.634098 -0.868621
HEad  36.0975 0.10373 -3.49933
LeftShoulder1  7.06621 -9.7922 -46.3341
LeftArm  -15.9168 26.5789 -21.7705
LeftForeArm  74.3012 -75.2111 -33.5002
LeftHand  -0.244104 0.0205437 5.32207
RightShoulder  6.47747 9.83135 42.2874
RightArm  2.59018 -18.023 28.2537
RightForeArm  -17.6835 26.9679 6.6752
RightHand  -1.33066 2.3466 -20.0032
LeftUpLeg  -7.61144 4.90809 -0.949476
LeftLeg  10.5471 22.9729 -1.24347
LeftFoot  -5.01071 -0.326848 6.38672
LeftToes  4.18335e-011 1.59304e-011 3.38507e-012
